<svg xmlns="http://www.w3.org/2000/svg" version="1.1" xmlns:xlink="http://www.w3.org/1999/xlink" width="65.08" height="21.95"><svg xmlns="http://www.w3.org/2000/svg" viewBox="0 0 65.08 21.95"><defs><style>.cls-1{fill:#f47820;}</style></defs><title>Ativo 6</title><g id="SvgjsG1009" data-name="Camada 2"><g id="SvgjsG1008"><path class="cls-1" d="M22.53,15.43l.86-4.27a2.19,2.19,0,0,0,0-1.05,2.27,2.27,0,0,0-.46-.9,2.35,2.35,0,0,0-1.84-.88h-.38a2.25,2.25,0,0,0,1.51-.55A2.43,2.43,0,0,0,23,6.42l.56-2.88a2.67,2.67,0,0,0,0-1.32A3.22,3.22,0,0,0,23,1.08a2.86,2.86,0,0,0-1-.79A3,3,0,0,0,20.67,0H0L3.63,1.07a.91.91,0,0,1,.64,1.06L1.13,17.83H19.62a2.94,2.94,0,0,0,1.89-.66A2.91,2.91,0,0,0,22.53,15.43ZM9.51,4.15h7.87a.55.55,0,0,1,.46.22.58.58,0,0,1,.13.49l-.23,1.2a.58.58,0,0,1-.59.49H9Zm8.58,6.67-.45,2.37a.63.63,0,0,1-.21.33.54.54,0,0,1-.38.16H7.6l.71-3.57h9.22a.52.52,0,0,1,.45.22A.57.57,0,0,1,18.09,10.82Z"></path><path class="cls-1" d="M27.3,17.92a.9.9,0,0,0,.9-.73l.87-4.31h6.52l2.27,5h4.4a.61.61,0,0,0,.56-.86l-1.88-4.18h1A3.19,3.19,0,0,0,44,12.16a2.87,2.87,0,0,0,1-1.67l1.37-6.85a2.84,2.84,0,0,0,0-1.33,3.26,3.26,0,0,0-.57-1.13,2.75,2.75,0,0,0-1-.79A2.89,2.89,0,0,0,43.44.1H26.27L22.7,17.92ZM30.78,4.25h9.4a.54.54,0,0,1,.44.21.63.63,0,0,1,.12.5L40.1,8.25a.63.63,0,0,1-.2.33.69.69,0,0,1-.39.12H29.89Z"></path><path class="cls-1" d="M64.15.1H60.91a1,1,0,0,0-.54.17L51.9,6.49,53,1.19A.92.92,0,0,0,52.06.1H47.83L44.26,17.92h4.6a.92.92,0,0,0,.9-.73l.92-4.62,2.42-1.88,4.84,7.23h4.52a.92.92,0,0,0,.77-1.43l-6-9,7.49-5.77A.92.92,0,0,0,64.15.1Z"></path><path class="cls-1" d="M64.43,19.81H.84l-.3,1.4a.61.61,0,0,0,.6.74H64.71L65,20.56A.61.61,0,0,0,64.43,19.81Z"></path></g></g></svg><style>@media (prefers-color-scheme: light) { :root { filter: none; } }
@media (prefers-color-scheme: dark) { :root { filter: none; } }
</style></svg>