<svg xmlns="http://www.w3.org/2000/svg" viewBox="0 0 162.11 54.68"><defs><style>.cls-1{fill:#f47820;}.cls-2{fill:#231f20;}</style></defs><title>logo-brk-orginal</title><g id="Camada_2" data-name="Camada 2"><g id="Layer_1" data-name="Layer 1"><path class="cls-1" d="M48.88,44.41H2.82l7.82-39.1A2.29,2.29,0,0,0,9,2.66L0,0H51.48a7.3,7.3,0,0,1,3.27.73,7.05,7.05,0,0,1,2.47,2,7.84,7.84,0,0,1,1.43,2.82,6.69,6.69,0,0,1,.07,3.3L57.32,16a6.08,6.08,0,0,1-2.06,3.39,5.69,5.69,0,0,1-3.78,1.37h1a5.74,5.74,0,0,1,2.6.6,5.83,5.83,0,0,1,2,1.59,6,6,0,0,1,1.14,2.25,5.56,5.56,0,0,1,.1,2.6L56.11,38.45a7.11,7.11,0,0,1-2.53,4.31A7.25,7.25,0,0,1,48.88,44.41ZM43.42,33.69a1.53,1.53,0,0,0,.51-.83L45.07,27a1.49,1.49,0,0,0-.28-1.23,1.34,1.34,0,0,0-1.11-.54h-23l-1.78,8.88H42.47A1.44,1.44,0,0,0,43.42,33.69ZM23.69,10.34l-1.2,6H42.73a1.43,1.43,0,0,0,1.46-1.21l.57-3a1.46,1.46,0,0,0-.32-1.24,1.42,1.42,0,0,0-1.14-.54Z"/><path class="cls-1" d="M88.66,32.09H72.42L70.25,42.81A2.28,2.28,0,0,1,68,44.65H56.56L65.44.24H108.2a7.27,7.27,0,0,1,3.27.73,7.06,7.06,0,0,1,2.48,2,7.94,7.94,0,0,1,1.42,2.83,7.18,7.18,0,0,1,.13,3.3l-3.43,17.06a7.13,7.13,0,0,1-2.39,4.17,7.91,7.91,0,0,1-5.19,1.8H102l4.68,10.41a1.53,1.53,0,0,1-1.39,2.15h-11ZM99.39,21.37a1.55,1.55,0,0,0,.5-.83l1.59-8.19a1.5,1.5,0,0,0-.29-1.23,1.31,1.31,0,0,0-1.11-.54H76.67l-2.22,11.1h24A1.64,1.64,0,0,0,99.39,21.37Z"/><path class="cls-1" d="M126.26,31.32,124,42.81a2.3,2.3,0,0,1-2.25,1.84H110.27L119.15.24h10.53A2.29,2.29,0,0,1,131.93,3L129.3,16.16,150.39.68a2.3,2.3,0,0,1,1.36-.44h8.07a2.29,2.29,0,0,1,1.39,4.1L142.56,18.7l14.95,22.39a2.29,2.29,0,0,1-1.91,3.56H144.34l-12.06-18"/><path class="cls-2" d="M59.89,54.68H54.37l1.06-5.32H60.2a.86.86,0,0,1,.39.09.76.76,0,0,1,.3.23,1.2,1.2,0,0,1,.17.34.86.86,0,0,1,0,.39l-.17.86a.77.77,0,0,1-.25.41.67.67,0,0,1-.45.16h.11a.69.69,0,0,1,.32.08.6.6,0,0,1,.23.19.58.58,0,0,1,.14.27.65.65,0,0,1,0,.31L60.75,54a.83.83,0,0,1-.3.52A.87.87,0,0,1,59.89,54.68Zm-.65-1.29a.24.24,0,0,0,.06-.1l.13-.7a.19.19,0,0,0,0-.15.18.18,0,0,0-.14-.06H56.51l-.21,1.06h2.82A.21.21,0,0,0,59.24,53.39ZM56.87,50.6l-.14.71h2.42a.16.16,0,0,0,.17-.14l.07-.36a.19.19,0,0,0,0-.15.2.2,0,0,0-.14-.06Z"/><path class="cls-2" d="M65.24,53.17H63.29L63,54.68h-1.6l1.07-5.32h5.12a.86.86,0,0,1,.39.09.66.66,0,0,1,.29.23,1,1,0,0,1,.18.34.86.86,0,0,1,0,.39L68,52.46a.84.84,0,0,1-.3.51.82.82,0,0,1-.56.2h-.35l.68,1.51h-1.6Zm1.28-1.28a.21.21,0,0,0,.06-.1l.19-1a.19.19,0,0,0,0-.15.16.16,0,0,0-.13-.06H63.8l-.27,1.33h2.88A.21.21,0,0,0,66.52,51.89Z"/><path class="cls-2" d="M72.79,53.17h-2.3l-.3,1.51h-1.6l.92-4.61a.81.81,0,0,1,.31-.51.82.82,0,0,1,.56-.2h3.69a.86.86,0,0,1,.39.09.76.76,0,0,1,.3.23,1,1,0,0,1,.17.34.86.86,0,0,1,0,.39l-.85,4.27h-1.6Zm-2.06-1.24H73l.22-1.12a.19.19,0,0,0,0-.15.18.18,0,0,0-.14-.06H71.15a.15.15,0,0,0-.17.14Z"/><path class="cls-2" d="M75.29,53.51l.08-.43H77l0,.15a.18.18,0,0,0,0,.14.16.16,0,0,0,.14.07H79a.15.15,0,0,0,.11,0,.24.24,0,0,0,.06-.11l.11-.53a.21.21,0,0,0,0-.15.18.18,0,0,0-.14-.06H76.66a1,1,0,0,1-.75-.36,1,1,0,0,1-.2-.81L76,50.14a1,1,0,0,1,.34-.56.94.94,0,0,1,.62-.22h3.51a.91.91,0,0,1,.43.1,1,1,0,0,1,.33.25,1.18,1.18,0,0,1,.19.37.93.93,0,0,1,0,.44l-.09.43h-1.6l0-.14a.19.19,0,0,0,0-.15.2.2,0,0,0-.14-.06h-2a.17.17,0,0,0-.17.14l-.09.44a.19.19,0,0,0,0,.15.18.18,0,0,0,.14.06h2.53a.89.89,0,0,1,.4.12,1.08,1.08,0,0,1,.3.26,1,1,0,0,1,.17.36.85.85,0,0,1,0,.42l-.26,1.33a1,1,0,0,1-1,.79H76.24a.88.88,0,0,1-.43-.1,1.06,1.06,0,0,1-.33-.26A1,1,0,0,1,75.3,54,.93.93,0,0,1,75.29,53.51Z"/><path class="cls-2" d="M81.71,54.68l1.06-5.32h1.6L83.3,54.68Z"/><path class="cls-2" d="M85.74,49.36H87.5l-.81,4.08H90l-.25,1.24H84.67Z"/><path class="cls-2" d="M96,53.17H94.1l-.31,1.51H92.2l1.06-5.32h5.12a.86.86,0,0,1,.39.09.76.76,0,0,1,.3.23,1,1,0,0,1,.17.34.74.74,0,0,1,0,.39l-.41,2.05a.79.79,0,0,1-.3.51.82.82,0,0,1-.56.2h-.34l.67,1.51H96.72Zm1.29-1.28a.33.33,0,0,0,.06-.1l.19-1a.18.18,0,0,0-.17-.21h-2.8l-.27,1.33h2.87A.28.28,0,0,0,97.33,51.89Z"/><path class="cls-2" d="M104.42,52.64h-2.83l-.16.8h3.37l-.26,1.24h-5l1.07-5.32h5l-.24,1.24H102l-.16.79h2.84Z"/><path class="cls-2" d="M112.82,49.36l-1.06,5.32H109l-.84-4.21-.84,4.21h-1.6l1.06-5.32h2.76l.84,4.21.84-4.21Z"/><path class="cls-2" d="M113.4,50.6l.25-1.24h5.43l-.25,1.24h-1.77l-.83,4.08h-1.76l.81-4.08Z"/><path class="cls-2" d="M123.2,53.17h-2.3l-.3,1.51H119l.92-4.61a.81.81,0,0,1,.31-.51.82.82,0,0,1,.56-.2h3.69a.86.86,0,0,1,.39.09.76.76,0,0,1,.3.23,1,1,0,0,1,.17.34.86.86,0,0,1,0,.39l-.85,4.27h-1.6Zm-2.06-1.24h2.31l.22-1.12a.19.19,0,0,0,0-.15.18.18,0,0,0-.14-.06h-1.94a.15.15,0,0,0-.17.14Z"/><path class="cls-2" d="M126.74,49.36h1.77l-.82,4.08H131l-.25,1.24h-5.07Z"/><path class="cls-2" d="M137.07,51.57l2.07,3.11h-1.86l-1.45-2.16-.72.55-.32,1.61H133.2l1.06-5.32h1.6l-.38,1.91,2.6-1.91h1.86Z"/><path class="cls-2" d="M144.18,53.17h-2.3l-.31,1.51H140l.92-4.61a.81.81,0,0,1,.31-.51.82.82,0,0,1,.56-.2h3.69a.86.86,0,0,1,.39.09.76.76,0,0,1,.3.23,1.2,1.2,0,0,1,.17.34.86.86,0,0,1,0,.39l-.85,4.27h-1.59Zm-2.06-1.24h2.31l.22-1.12a.18.18,0,0,0-.17-.21h-1.94a.17.17,0,0,0-.18.14Z"/><path class="cls-2" d="M150.5,53.17h-1.95l-.3,1.51h-1.6l1.07-5.32h5.12a.86.86,0,0,1,.39.09.66.66,0,0,1,.29.23,1,1,0,0,1,.18.34.86.86,0,0,1,0,.39l-.41,2.05a.87.87,0,0,1-.86.71h-.35l.68,1.51h-1.6Zm1.28-1.28a.21.21,0,0,0,.06-.1l.19-1a.19.19,0,0,0,0-.15.18.18,0,0,0-.14-.06h-2.8l-.27,1.33h2.88A.25.25,0,0,0,151.78,51.89Z"/><path class="cls-2" d="M154.3,50.6l.25-1.24H160l-.25,1.24H158l-.82,4.08h-1.77l.81-4.08Z"/><path class="cls-1" d="M2.84,54.68H52.07l.78-3.47a1.53,1.53,0,0,0-1.49-1.85H2.1l-.75,3.47A1.52,1.52,0,0,0,2.84,54.68Z"/></g></g></svg>