<svg xmlns="http://www.w3.org/2000/svg" viewBox="0 0 187.98 61.47"><defs><style>.cls-1{fill:#fff;}.cls-2{fill:#231f20;}</style></defs><title>Ativo 2</title><g id="Camada_2" data-name="Camada 2"><g id="Layer_1" data-name="Layer 1"><path class="cls-1" d="M55.17,50.13h-52L12.47,3.67,0,0H58.11a8.24,8.24,0,0,1,3.68.82A8,8,0,0,1,64.59,3,9.06,9.06,0,0,1,66.2,6.23,7.54,7.54,0,0,1,66.27,10l-1.57,8.1a6.9,6.9,0,0,1-2.33,3.83,6.45,6.45,0,0,1-4.26,1.54h1.07a6.42,6.42,0,0,1,2.94.68,6.64,6.64,0,0,1,2.25,1.79,6.87,6.87,0,0,1,1.29,2.54,6.34,6.34,0,0,1,.11,2.94l-2.43,12a8,8,0,0,1-2.87,4.87A8.16,8.16,0,0,1,55.17,50.13ZM49,38a1.74,1.74,0,0,0,.58-.94l1.28-6.66A1.67,1.67,0,0,0,50.55,29a1.49,1.49,0,0,0-1.25-.61H23.37l-2,10H47.94A1.64,1.64,0,0,0,49,38ZM26.74,11.67,25.38,18.4H48.23A1.59,1.59,0,0,0,49.87,17l.65-3.36a1.68,1.68,0,0,0-.36-1.4,1.63,1.63,0,0,0-1.29-.61Z"/><path class="cls-1" d="M100.07,36.22H81.74L78.88,50.4h-15L73.87.27h48.26a8.25,8.25,0,0,1,3.69.82,8,8,0,0,1,2.79,2.22,8.82,8.82,0,0,1,1.61,3.19,8,8,0,0,1,.14,3.72L126.5,29.49a8.29,8.29,0,0,1-8.16,6.73h-3.23l6.38,14.18h-15Zm12.11-12.1a1.78,1.78,0,0,0,.57-.94L114.54,14a1.72,1.72,0,0,0-.32-1.4,1.49,1.49,0,0,0-1.26-.61H86.54L84,24.47H111.1A1.83,1.83,0,0,0,112.18,24.12Z"/><path class="cls-1" d="M142.51,35.35l-3,15h-15l10-50.13h15l-3.58,18,24.49-18H188L160.91,21.11,180.46,50.4H162.91l-13.6-20.34"/><path class="cls-2" d="M65.35,61.47h-6l1.16-5.8h5.2a1,1,0,0,1,.43.09.92.92,0,0,1,.32.26,1,1,0,0,1,.19.37.89.89,0,0,1,0,.43l-.19.94a.73.73,0,0,1-.27.44.72.72,0,0,1-.49.18h.13a.73.73,0,0,1,.33.08.79.79,0,0,1,.27.2.85.85,0,0,1,.15.3.78.78,0,0,1,0,.34l-.28,1.39a1,1,0,0,1-.34.57A.94.94,0,0,1,65.35,61.47Zm-.71-1.4a.3.3,0,0,0,.07-.11l.14-.77a.18.18,0,0,0,0-.16.18.18,0,0,0-.15-.07h-3l-.23,1.16h3.07A.21.21,0,0,0,64.64,60.07Zm-2.58-3-.16.78h2.65a.18.18,0,0,0,.19-.16l.07-.39a.19.19,0,0,0,0-.16.18.18,0,0,0-.15-.07Z"/><path class="cls-2" d="M71.19,59.83H69.06l-.33,1.64H67l1.16-5.8h5.59a1.07,1.07,0,0,1,.43.09,1,1,0,0,1,.32.26,1.18,1.18,0,0,1,.19.37,1,1,0,0,1,0,.43l-.44,2.23a1,1,0,0,1-.34.56.9.9,0,0,1-.61.22h-.37l.73,1.64H71.92Zm1.4-1.4a.2.2,0,0,0,.06-.11l.21-1.07a.19.19,0,0,0,0-.16.15.15,0,0,0-.14-.07H69.62l-.29,1.45h3.13A.2.2,0,0,0,72.59,58.43Z"/><path class="cls-2" d="M79.42,59.83H76.91l-.33,1.64H74.84l1-5a1,1,0,0,1,1-.78h4a1,1,0,0,1,.42.09,1.06,1.06,0,0,1,.33.26,1.16,1.16,0,0,1,.18.37.89.89,0,0,1,0,.43l-.93,4.65H79.09Zm-2.24-1.36H79.7l.24-1.22a.23.23,0,0,0,0-.16.18.18,0,0,0-.15-.07H77.64a.18.18,0,0,0-.2.16Z"/><path class="cls-2" d="M82.14,60.19l.09-.46H84l0,.16a.23.23,0,0,0,0,.16.18.18,0,0,0,.15.07h2.08a.13.13,0,0,0,.12,0A.16.16,0,0,0,86.4,60l.12-.58a.19.19,0,0,0,0-.16.18.18,0,0,0-.15-.07H83.64a1,1,0,0,1-.46-.11,1,1,0,0,1-.36-.28,1.12,1.12,0,0,1-.2-.41,1,1,0,0,1,0-.48l.26-1.35a1,1,0,0,1,.37-.61,1,1,0,0,1,.68-.24h3.83a.92.92,0,0,1,.46.11,1.09,1.09,0,0,1,.36.28,1.08,1.08,0,0,1,.2.4,1,1,0,0,1,0,.48l-.1.47H87l0-.16a.19.19,0,0,0,0-.16.18.18,0,0,0-.15-.07H84.67a.18.18,0,0,0-.19.16l-.09.48a.19.19,0,0,0,0,.16.18.18,0,0,0,.15.07h2.76a.9.9,0,0,1,.43.13,1,1,0,0,1,.33.28,1.14,1.14,0,0,1,.19.4.89.89,0,0,1,0,.46L88,60.62a1,1,0,0,1-.37.61,1,1,0,0,1-.68.24H83.18a1.06,1.06,0,0,1-.82-.39,1.09,1.09,0,0,1-.21-.4A1.15,1.15,0,0,1,82.14,60.19Z"/><path class="cls-2" d="M89.15,61.47l1.16-5.8h1.74l-1.16,5.8Z"/><path class="cls-2" d="M93.54,55.67h1.93l-.89,4.45h3.6l-.27,1.35H92.38Z"/><path class="cls-2" d="M104.78,59.83h-2.12l-.33,1.64h-1.74l1.16-5.8h5.58a1,1,0,0,1,.43.09.92.92,0,0,1,.32.26,1,1,0,0,1,.19.37,1,1,0,0,1,0,.43l-.45,2.23a1,1,0,0,1-.33.56.94.94,0,0,1-.62.22h-.37l.74,1.64h-1.74Zm1.4-1.4a.21.21,0,0,0,.07-.11l.2-1.07a.18.18,0,0,0,0-.16.18.18,0,0,0-.15-.07h-3.06l-.29,1.45h3.14A.19.19,0,0,0,106.18,58.43Z"/><path class="cls-2" d="M113.92,59.25h-3.09l-.18.87h3.68l-.28,1.35h-5.41l1.16-5.8h5.41L115,57h-3.68l-.18.87h3.1Z"/><path class="cls-2" d="M123.08,55.67l-1.16,5.8h-3L118,56.88l-.92,4.59h-1.74l1.16-5.8h3l.92,4.59.91-4.59Z"/><path class="cls-2" d="M123.71,57l.27-1.35h5.92L129.63,57h-1.94l-.89,4.45h-1.93l.88-4.45Z"/><path class="cls-2" d="M134.4,59.83h-2.51l-.33,1.64h-1.74l1-5a1,1,0,0,1,.34-.57,1,1,0,0,1,.61-.21h4a1,1,0,0,1,.43.09.92.92,0,0,1,.32.26,1,1,0,0,1,.19.37.89.89,0,0,1,0,.43l-.93,4.65h-1.74Zm-2.24-1.36h2.51l.24-1.22a.16.16,0,0,0,0-.16.17.17,0,0,0-.15-.07h-2.11a.17.17,0,0,0-.19.16Z"/><path class="cls-2" d="M138.25,55.67h1.94l-.89,4.45h3.6l-.28,1.35h-5.53Z"/><path class="cls-2" d="M149.52,58.08l2.26,3.39h-2l-1.58-2.35-.78.6L147,61.47H145.3l1.16-5.8h1.74l-.41,2.08,2.83-2.08h2Z"/><path class="cls-2" d="M157.27,59.83h-2.51l-.33,1.64h-1.74l1-5a1,1,0,0,1,.34-.57,1,1,0,0,1,.62-.21h4a1,1,0,0,1,.42.09,1.06,1.06,0,0,1,.33.26,1.16,1.16,0,0,1,.18.37.89.89,0,0,1,0,.43l-.93,4.65h-1.74ZM155,58.47h2.52l.24-1.22a.23.23,0,0,0,0-.16.18.18,0,0,0-.15-.07h-2.11a.18.18,0,0,0-.2.16Z"/><path class="cls-2" d="M164.16,59.83H162l-.33,1.64H160l1.16-5.8h5.59a1,1,0,0,1,.42.09,1.06,1.06,0,0,1,.33.26,1.16,1.16,0,0,1,.18.37.89.89,0,0,1,0,.43l-.45,2.23a.9.9,0,0,1-.33.56.92.92,0,0,1-.61.22h-.37l.73,1.64H164.9Zm1.4-1.4a.16.16,0,0,0,.07-.11l.21-1.07a.19.19,0,0,0,0-.16.16.16,0,0,0-.14-.07H162.6l-.29,1.45h3.13A.17.17,0,0,0,165.56,58.43Z"/><path class="cls-2" d="M168.31,57l.28-1.35h5.92L174.23,57H172.3l-.89,4.45h-1.94l.89-4.45Z"/><path class="cls-2" d="M174.57,60.19l.1-.46h1.74l0,.16a.19.19,0,0,0,0,.16.15.15,0,0,0,.14.07h2.08a.13.13,0,0,0,.12,0,.16.16,0,0,0,.07-.11l.12-.58a.19.19,0,0,0,0-.16.18.18,0,0,0-.15-.07h-2.69a1,1,0,0,1-.46-.11,1.09,1.09,0,0,1-.36-.28,1.12,1.12,0,0,1-.2-.41,1.1,1.1,0,0,1,0-.48l.26-1.35a1.05,1.05,0,0,1,.37-.61,1.07,1.07,0,0,1,.68-.24h3.83a.92.92,0,0,1,.46.11,1.09,1.09,0,0,1,.36.28,1.27,1.27,0,0,1,.21.4,1.1,1.1,0,0,1,0,.48l-.1.47h-1.74l0-.16a.16.16,0,0,0,0-.16.18.18,0,0,0-.15-.07H177.1a.18.18,0,0,0-.19.16l-.09.48a.19.19,0,0,0,0,.16.18.18,0,0,0,.15.07h2.76a.94.94,0,0,1,.44.13,1.08,1.08,0,0,1,.32.28,1.36,1.36,0,0,1,.2.4,1,1,0,0,1,0,.46l-.29,1.45a1,1,0,0,1-.37.61,1,1,0,0,1-.67.24h-3.79a1.1,1.1,0,0,1-.82-.39,1.08,1.08,0,0,1-.2-.4A1,1,0,0,1,174.57,60.19Z"/><polygon class="cls-1" points="1.06 61.47 56.83 61.47 58.12 55.67 2.33 55.67 1.06 61.47"/></g></g></svg>